<svg width="48" height="48" viewBox="0 0 48 48" fill="none" xmlns="http://www.w3.org/2000/svg">
  <g clip-path="url(#clip0_54_634)" filter="url(#filter0_d_54_634)">
    <path fill-rule="evenodd" clip-rule="evenodd"
          d="M11.6845 23.1579L19.7898 31.9295L12.2634 33.6842L8.21081 30.1758L11.6845 23.1579ZM33.0761 6.31579L36.6319 8.27053L35.4466 14.7368L27.1497 9.32316L33.0761 6.31579ZM10.974 6.31579C11.3687 6.31579 11.6855 6.33263 12.1582 6.71053C12.8161 7.23684 15.2424 8.95474 15.2424 8.95474L15.6824 9.73684C16.4834 9.77684 16.5034 9.84947 17.515 10.5926L39.7897 25.7021C39.6182 26.0737 36.9697 33.6842 36.9697 33.6842H32.8813L8.21081 7.63158C8.21081 7.63158 8.61291 7.48105 9.00028 7.23684C9.60765 6.85474 10.3719 6.31579 10.974 6.31579ZM14.0003 1.05263H5.05291C4.49712 1.33053 4.00028 1.65263 4.00028 2.76316V10V12.2368L5.04028 15.1295L4.00028 16.5789V17.7632L5.05291 18.5526V20L4.00028 21.0526V25L5.05291 25.6579V30C3.95396 30.7821 4.00028 31.7105 4.00028 32.7779V37.7632C6.46238 38.3779 6.05396 38.9474 8.8687 38.9474C11.3561 38.9474 12.9476 38.9474 12.9476 38.9474C13.3287 38.9232 13.6255 38.8432 14.0003 38.8074C15.0466 38.7063 15.7108 37.8947 15.7108 37.8947L18.474 38.9474L19.5266 37.8947C19.5266 37.8947 20.9066 39.6032 21.2371 40L22.1582 38.9474L25.0529 40C25.0529 40 26.1266 38.9695 27.2897 38.9474H32.9476C33.034 38.8642 34.0003 37.8947 34.0003 37.8947C34.4434 38.16 34.0519 38.9474 38.0792 38.9474C39.1908 38.9474 40.1845 38.6842 40.1845 38.6842C40.014 38.1158 39.995 38.2316 39.6582 37.8947C39.6582 37.8947 42.2897 37.8947 44.0003 38.9474V22.6389L41.895 23.2895C41.9361 22.9558 42.9087 22.5126 42.9476 21.8421C42.9971 20.9968 42.9013 18.0674 42.7782 17.4484C42.715 17.1326 42.1119 16.2074 41.895 15.9211C42.1529 15.2253 42.9476 14.7368 42.9476 14.7368V13.9474L44.0003 13.3337V8.88947L42.9476 4.47368L44.0003 3.33368V2.07474L42.8887 1.11158L39.2782 0.514737L38.4445 1.11158L38.0276 0.416842C38.0276 0.416842 32.5708 0.00210511 31.5813 0.00210511C30.315 0.00210511 30.4992 0.0968421 30.0708 1.52316L28.254 1.70842L28.0792 1.05263H26.2371L26.5403 0.718947C26.8624 0.414737 26.7497 0.536842 27.0013 0H20.6666C20.5676 0.181053 20.2055 0.591579 19.9203 1.05263C19.9203 1.05263 19.3645 1.04737 18.9476 1.32526C18.5308 1.60316 18.5329 2.10526 17.9771 2.10526C17.4213 2.10526 16.2687 2.10526 15.6161 2.10526C14.2266 2.10526 14.0003 1.05263 14.0003 1.05263Z"
          fill="#F44336"/>
  </g>
  <defs>
    <filter id="filter0_d_54_634" x="0" y="0" width="48" height="48" filterUnits="userSpaceOnUse"
            color-interpolation-filters="sRGB">
      <feFlood flood-opacity="0" result="BackgroundImageFix"/>
      <feColorMatrix in="SourceAlpha" type="matrix" values="0 0 0 0 0 0 0 0 0 0 0 0 0 0 0 0 0 0 127 0"
                     result="hardAlpha"/>
      <feOffset dy="4"/>
      <feGaussianBlur stdDeviation="2"/>
      <feComposite in2="hardAlpha" operator="out"/>
      <feColorMatrix type="matrix" values="0 0 0 0 0 0 0 0 0 0 0 0 0 0 0 0 0 0 0.25 0"/>
      <feBlend mode="normal" in2="BackgroundImageFix" result="effect1_dropShadow_54_634"/>
      <feBlend mode="normal" in="SourceGraphic" in2="effect1_dropShadow_54_634" result="shape"/>
    </filter>
    <clipPath id="clip0_54_634">
      <rect width="40" height="40" fill="white" transform="translate(4)"/>
    </clipPath>
  </defs>
</svg>
