<svg width="21" height="21" viewBox="0 0 21 21" fill="none" xmlns="http://www.w3.org/2000/svg">
  <g clip-path="url(#clip0_167_1222)">
    <path
      d="M15.1774 13.43C16.3878 11.7784 16.9299 9.73061 16.6953 7.69643C16.4607 5.66226 15.4667 3.79167 13.9121 2.45891C12.3575 1.12615 10.3571 0.4295 8.31095 0.508342C6.26481 0.587183 4.32388 1.4357 2.87649 2.88413C1.42909 4.33256 0.581965 6.27409 0.504587 8.32029C0.42721 10.3665 1.12529 12.3664 2.45916 13.9201C3.79303 15.4737 5.66433 16.4663 7.69868 16.6995C9.73302 16.9326 11.7804 16.389 13.4312 15.1775H13.4299C13.4674 15.2275 13.5074 15.275 13.5524 15.3212L18.3649 20.1337C18.5993 20.3683 18.9172 20.5001 19.2488 20.5002C19.5804 20.5004 19.8985 20.3688 20.133 20.1344C20.3676 19.9 20.4994 19.582 20.4995 19.2504C20.4996 18.9188 20.368 18.6008 20.1337 18.3662L15.3212 13.5537C15.2765 13.5085 15.2284 13.4667 15.1774 13.4287V13.43ZM15.4999 8.625C15.4999 9.52783 15.3221 10.4218 14.9766 11.2559C14.6311 12.0901 14.1247 12.848 13.4863 13.4864C12.8479 14.1248 12.09 14.6312 11.2558 14.9767C10.4217 15.3222 9.52774 15.5 8.6249 15.5C7.72206 15.5 6.82807 15.3222 5.99395 14.9767C5.15984 14.6312 4.40195 14.1248 3.76354 13.4864C3.12514 12.848 2.61873 12.0901 2.27323 11.2559C1.92773 10.4218 1.7499 9.52783 1.7499 8.625C1.7499 6.80163 2.47423 5.05295 3.76354 3.76364C5.05286 2.47432 6.80154 1.75 8.6249 1.75C10.4483 1.75 12.1969 2.47432 13.4863 3.76364C14.7756 5.05295 15.4999 6.80163 15.4999 8.625Z"
      fill="white"/>
  </g>
  <defs>
    <clipPath id="clip0_167_1222">
      <rect width="20" height="20" fill="white" transform="translate(0.5 0.5)"/>
    </clipPath>
  </defs>
</svg>
